<svg width="1126" height="206" viewBox="0 0 1126 206" fill="none" xmlns="http://www.w3.org/2000/svg">
<path d="M20.0725 202V54.6655C20.0725 36.8233 25.4433 23.3051 36.185 14.1109C46.9268 4.82568 61.6284 0.183073 80.2898 0.183073C84.2042 0.183073 87.7999 0.410652 91.0771 0.865809C94.3542 1.32097 97.7679 1.91267 101.318 2.64092L99.4064 36.5047C97.7679 36.2316 95.9472 35.9585 93.9446 35.6854C92.0329 35.3212 89.8026 35.1392 87.2537 35.1392C80.2443 35.1392 74.8734 37.2329 71.1411 41.4204C67.4999 45.5168 65.6793 52.3441 65.6793 61.9025V84.4328L66.362 85.7982V202H20.0725ZM0.136547 110.786V77.1958H28.2653H30.8597H91.0771V110.786H0.136547ZM101.318 159.807V77.1958H148.29V152.433C148.29 159.534 149.747 164.495 152.66 167.317C155.664 170.139 159.806 171.55 165.086 171.55C169.728 171.55 173.779 170.093 177.238 167.18C180.789 164.267 183.611 160.535 185.704 155.984V77.1958H232.677V202H186.387L186.114 184.385C182.746 190.576 177.557 195.628 170.548 199.542C163.538 203.365 154.845 205.277 144.467 205.277C131.541 205.277 121.117 201.772 113.198 194.763C105.278 187.663 101.318 176.01 101.318 159.807ZM254.797 202V77.1958H301.223V94.5373H301.496C304.683 88.2561 309.78 83.2494 316.79 79.5171C323.799 75.6937 332.538 73.7821 343.007 73.7821C355.842 73.7821 366.22 77.3323 374.14 84.4328C382.15 91.5332 386.156 103.14 386.156 119.252V202H339.184V128.128C339.184 121.027 337.682 115.975 334.677 112.971C331.764 109.876 327.623 108.329 322.252 108.329C317.609 108.329 313.513 109.74 309.962 112.562C306.412 115.383 303.636 119.07 301.633 123.622V202H254.797ZM407.457 202V77.1958H453.883V94.5373H454.156C457.342 88.2561 462.44 83.2494 469.45 79.5171C476.459 75.6937 485.198 73.7821 495.667 73.7821C508.502 73.7821 518.88 77.3323 526.8 84.4328C534.81 91.5332 538.816 103.14 538.816 119.252V202H491.843V128.128C491.843 121.027 490.341 115.975 487.337 112.971C484.424 109.876 480.282 108.329 474.912 108.329C470.269 108.329 466.173 109.74 462.622 112.562C459.072 115.383 456.296 119.07 454.293 123.622V202H407.457ZM554.109 141.373V136.867C554.109 116.931 560.299 101.365 572.679 90.1678C585.06 78.8798 601.764 73.2359 622.792 73.2359C643.821 73.2359 660.024 77.6054 671.403 86.3444C682.782 95.0835 688.836 107.964 689.564 124.987L689.7 127.991H644.367V126.216C644.367 119.935 642.683 115.019 639.314 111.469C635.946 107.919 630.985 106.144 624.431 106.144C617.148 106.144 611.504 108.647 607.499 113.654C603.494 118.57 601.491 125.807 601.491 135.365V142.738C601.491 152.115 603.448 159.488 607.362 164.859C611.277 170.139 616.921 172.779 624.294 172.779C631.031 172.779 636.083 171.049 639.451 167.59C642.819 164.04 644.549 159.17 644.64 152.98V151.068H689.837L689.7 154.208C689.336 170.776 683.419 183.43 671.949 192.169C660.479 200.817 644.185 205.141 623.065 205.141C602.128 205.141 585.378 199.451 572.816 188.072C560.345 176.693 554.109 161.127 554.109 141.373ZM705.676 202V3.18711H752.512V93.8545C755.516 87.9375 760.523 83.1128 767.532 79.3805C774.633 75.6482 783.417 73.7821 793.886 73.7821C806.722 73.7821 817.099 77.3323 825.019 84.4328C833.03 91.5332 837.035 103.14 837.035 119.252V202H790.063V127.991C790.063 120.891 788.561 115.839 785.557 112.835C782.644 109.831 778.502 108.329 773.131 108.329C768.488 108.329 764.346 109.785 760.705 112.698C757.155 115.52 754.424 119.116 752.512 123.485V202H705.676ZM852.328 141.236V136.867C852.328 117.477 858.655 102.047 871.308 90.5774C883.962 79.1074 900.985 73.3724 922.377 73.3724C943.314 73.3724 959.427 78.9254 970.715 90.0312C982.003 101.046 987.647 116.203 987.647 135.501V147.791H876.77V124.987H942.45V124.168C942.45 118.706 940.765 114.2 937.397 110.65C934.12 107.1 928.977 105.325 921.967 105.325C914.412 105.325 908.677 107.964 904.762 113.244C900.939 118.524 899.028 124.714 899.028 131.815V141.51C899.028 151.614 901.121 159.397 905.309 164.859C909.587 170.23 915.641 172.915 923.469 172.915C929.387 172.915 934.257 171.778 938.08 169.502C941.994 167.135 944.998 163.903 947.092 159.807L986.827 169.365C982.731 180.653 975.676 189.438 965.663 195.719C955.649 202 941.721 205.141 923.879 205.141C901.121 205.141 883.507 199.451 871.035 188.072C858.564 176.693 852.328 161.081 852.328 141.236ZM999.936 161.309L1040.9 161.855V164.586C1040.9 170.412 1042.77 174.463 1046.5 176.739C1050.32 178.924 1055.42 180.016 1061.79 180.016C1067.89 180.016 1072.31 179.151 1075.04 177.421C1077.86 175.692 1079.27 172.915 1079.27 169.092C1079.27 165.451 1077.27 162.629 1073.26 160.626C1069.26 158.532 1061.79 156.53 1050.87 154.618C1033.94 151.523 1021.69 146.698 1014.14 140.144C1006.58 133.499 1002.8 124.35 1002.8 112.698C1002.8 99.7716 1008.08 89.9857 1018.64 83.3404C1029.2 76.6041 1044 73.2359 1063.02 73.2359C1081.59 73.2359 1096.11 76.6951 1106.58 83.6135C1117.14 90.5319 1122.37 100.545 1122.28 113.654V116.521H1081.45V113.654C1081.45 108.465 1079.73 104.824 1076.27 102.73C1072.9 100.636 1068.07 99.5895 1061.79 99.5895C1056.42 99.5895 1052.51 100.409 1050.05 102.047C1047.68 103.595 1046.5 106.053 1046.5 109.421C1046.5 112.425 1048.5 114.883 1052.51 116.794C1056.6 118.706 1064.07 120.618 1074.9 122.529C1092.92 125.534 1105.94 130.176 1113.95 136.457C1121.96 142.647 1125.97 151.204 1125.97 162.128C1125.97 176.602 1120.6 187.389 1109.86 194.49C1099.11 201.59 1083.5 205.141 1063.02 205.141C1043.08 205.141 1027.7 201.59 1016.87 194.49C1006.13 187.298 1000.53 177.103 1000.07 163.903L999.936 161.309Z" fill="white"/>
</svg>
