<?xml version="1.0" encoding="utf-8"?>
<!-- Generator: Adobe Illustrator 26.4.1, SVG Export Plug-In . SVG Version: 6.00 Build 0)  -->
<svg version="1.1" id="Layer_1" xmlns="http://www.w3.org/2000/svg" xmlns:xlink="http://www.w3.org/1999/xlink" x="0px" y="0px"
	 viewBox="0 0 198.4 39.7" style="enable-background:new 0 0 198.4 39.7;" xml:space="preserve">
<style type="text/css">
	.st0{fill:#545454;}
</style>
<g>
	<rect x="197.1" y="0" class="st0" width="1.3" height="39.7"/>
	<rect x="44.2" y="0" class="st0" width="1.3" height="39.7"/>
	<rect x="1.8" y="0" class="st0" width="1.3" height="39.7"/>
	<rect x="3.7" y="0" class="st0" width="1.3" height="39.7"/>
	<path class="st0" d="M42.3,39.7V25.3H12.7v14.4h-1.3V0h1.3v14.8h6.4c3.8,0,7.2-1.8,8.8-4.6l0.1-0.1C28,10,28,10,28,9.9l0-0.1
		c0.4-0.9,0.6-1.8,0.6-2.7c0-0.2,0-0.4,0-0.7c0-0.1,0-0.2,0-0.2c0-0.2-0.1-0.3-0.1-0.5c0-0.1,0-0.2-0.1-0.2c0-0.2-0.1-0.3-0.1-0.5
		c0,0,0-0.2-0.1-0.2c-0.1-0.2-0.2-0.4-0.3-0.6c0-0.1-0.1-0.1-0.1-0.2l0-0.1c-0.1-0.1-0.1-0.2-0.2-0.4c-0.1-0.1-0.1-0.2-0.2-0.3
		c-0.1-0.1-0.1-0.2-0.2-0.3C27.1,2.9,27,2.8,27,2.7c0,0-0.2-0.2-0.2-0.2c-0.2-0.2-0.5-0.5-0.7-0.7l-0.1,0c-0.1-0.1-0.3-0.2-0.4-0.3
		l-0.1-0.1C25.3,1.3,25.1,1.2,25,1c-0.7-0.4-1.4-0.8-2.2-1h2.8l0,0l0.1,0c0.2,0.2,0.5,0.3,0.7,0.5c0.1,0.1,0.1,0.1,0.2,0.2
		c0.2,0.2,0.5,0.4,0.7,0.6l0.1,0.1c0.5,0.5,1,1,1.3,1.6c0,0,0.1,0.2,0.1,0.2c0.1,0.2,0.2,0.4,0.4,0.7c0,0.1,0.1,0.2,0.1,0.3
		c0.1,0.2,0.2,0.4,0.2,0.7c0,0.1,0.1,0.2,0.1,0.3c0.1,0.2,0.1,0.4,0.1,0.7l0,0.1c0,0.1,0,0.1,0,0.2c0,0.4,0.1,0.7,0.1,1
		c0,3.4-2.4,6.4-6.2,7.9c-0.9,0.3-1.7,0.6-2.6,0.7l-0.2,0c-0.7,0.1-1.4,0.2-2,0.2h-6.4v0.4h6.4c6.4,0,11.5-4.1,11.5-9.2
		c0-0.3,0-0.7-0.1-1c0-0.1,0-0.1,0-0.2l0-0.1c0-0.2-0.1-0.4-0.1-0.7c0-0.1,0-0.2-0.1-0.3l0-0.1c-0.1-0.2-0.1-0.4-0.2-0.6
		c0-0.1-0.1-0.2-0.2-0.3c-0.1-0.2-0.2-0.4-0.3-0.6c-0.1-0.1-0.1-0.2-0.2-0.3c-0.1-0.2-0.3-0.4-0.4-0.6l0-0.1c0-0.1-0.1-0.1-0.1-0.2
		c-0.2-0.2-0.4-0.4-0.5-0.6c0,0-0.1-0.1-0.1-0.1c-0.5-0.5-1-0.9-1.6-1.3h2c0,0,0,0,0,0l0.1,0.1c0.2,0.2,0.4,0.4,0.6,0.6
		c0,0,0.2,0.2,0.2,0.2c0.2,0.2,0.3,0.4,0.5,0.6c0,0,0.1,0.1,0.1,0.2l0.1,0.1c0.1,0.2,0.3,0.4,0.4,0.6c0,0.1,0.1,0.1,0.1,0.2l0.1,0.2
		c0.1,0.2,0.2,0.3,0.3,0.5c0,0.1,0.1,0.2,0.1,0.3l0.1,0.2c0.1,0.1,0.1,0.3,0.2,0.4c0,0.1,0.1,0.2,0.1,0.3l0.1,0.3
		c0,0.1,0.1,0.2,0.1,0.3c0,0.2,0.1,0.3,0.1,0.5l0,0.3c0,0.1,0,0.1,0.1,0.2c0,0.3,0.1,0.7,0.1,1c0,1.3-0.3,2.6-0.9,3.8
		c0,0,0,0.1,0,0.1c0,0,0,0.1-0.1,0.1c-0.2,0.5-0.5,0.9-0.9,1.4l-0.1,0.1c0,0.1-0.1,0.1-0.1,0.2c-2.4,2.9-6.4,4.6-10.7,4.6h-6.4v0.4
		h6.4c7.4,0,13.5-4.9,13.5-10.8c0-0.3,0-0.7-0.1-1.1c0-0.1,0-0.2,0-0.3l0-0.2c0-0.2-0.1-0.3-0.1-0.5c0-0.2-0.1-0.3-0.1-0.5l-0.1-0.2
		c0-0.1-0.1-0.2-0.1-0.3c-0.1-0.2-0.2-0.4-0.3-0.6l0-0.1c0-0.1-0.1-0.1-0.1-0.2c-0.1-0.2-0.2-0.5-0.4-0.7l-0.1-0.2
		C31,2,30.8,1.8,30.6,1.5l-0.1-0.1c-0.2-0.2-0.4-0.5-0.6-0.7l0-0.1c-0.2-0.2-0.4-0.4-0.6-0.6H31c0.8,0.9,1.5,2,2,3l0,0.1
		c0,0.1,0.1,0.1,0.1,0.2c0.1,0.2,0.1,0.4,0.2,0.5c0.1,0.2,0.1,0.3,0.2,0.5c0,0.2,0.1,0.3,0.1,0.5c0,0.2,0.1,0.4,0.1,0.7l0,0.1
		c0,0.1,0,0.2,0,0.3c0,0.4,0.1,0.8,0.1,1.1c0,6.6-6.6,12-14.8,12h-6.4v0.4h6.4c1.5,0,3.1-0.2,4.5-0.5c0.6-0.1,1.1-0.3,1.8-0.5
		c5.5-2,9.1-6.4,9.1-11.3c0-0.3,0-0.7-0.1-1.1c0-0.1,0-0.2,0-0.3l0-0.1c0-0.2-0.1-0.5-0.1-0.7c0-0.2-0.1-0.3-0.1-0.5
		C34.1,4.2,34,4,34,3.8l0-0.1c0-0.1-0.1-0.2-0.1-0.4c0-0.1-0.1-0.2-0.1-0.2l-0.1-0.1c-0.2-0.4-0.4-0.8-0.7-1.2l-0.1-0.2
		c-0.2-0.2-0.3-0.5-0.5-0.7l-0.1-0.2c-0.2-0.2-0.3-0.4-0.5-0.6h1.7c0.3,0.5,0.7,1,1,1.6l0,0.1c0.3,0.5,0.5,1.1,0.8,1.7l0,0.1
		c0.1,0.3,0.2,0.5,0.2,0.8l0,0.1c0.1,0.3,0.1,0.6,0.2,0.8l0,0.2c0,0.2,0.1,0.5,0.1,0.7l0,0.2c0,0.3,0,0.6,0,0.9
		c0,4.8-3.3,9.4-8.5,11.8c-0.4,0.2-0.9,0.4-1.3,0.5c-0.3,0.1-0.5,0.2-0.8,0.3c-2,0.6-4,0.9-6.1,0.9h-6.4V21h6.4
		c9,0,16.4-5.4,17.3-12.5c0-0.1,0-0.2,0-0.2c0-0.4,0.1-0.8,0.1-1.2c0-0.3,0-0.6,0-0.9l0-0.2c0-0.2,0-0.4-0.1-0.7l0-0.2
		c0-0.3-0.1-0.6-0.2-0.8l0-0.1C36,3.9,36,3.7,35.9,3.4l-0.1-0.2c-0.1-0.2-0.2-0.5-0.3-0.7l-0.1-0.1c-0.1-0.3-0.2-0.5-0.4-0.8l0-0.1
		c-0.2-0.3-0.3-0.5-0.4-0.7l-0.1-0.2c-0.1-0.2-0.3-0.4-0.4-0.6h1.6c0.1,0.2,0.3,0.5,0.4,0.7l0.1,0.1c0.1,0.2,0.2,0.4,0.3,0.6
		l0.1,0.2c0.1,0.2,0.2,0.4,0.3,0.7l0.1,0.2c0.2,0.5,0.4,1.1,0.5,1.7l0,0.2c0,0.2,0.1,0.4,0.1,0.6c0,0.1,0,0.2,0,0.3
		c0,0.2,0,0.4,0.1,0.6l0,0.3c0,0.3,0,0.6,0,0.9c0,8.3-8.4,15.1-18.7,15.1h-6.4v0.4h6.4c7.4,0,14-3.3,17.3-8.6l0.1-0.2
		c1.3-2.1,1.9-4.4,1.9-6.7c0-0.3,0-0.6,0-0.9l0-0.3c0-0.2,0-0.4-0.1-0.6c0-0.1,0-0.2,0-0.3c0-0.2-0.1-0.4-0.1-0.6l0-0.2
		c-0.1-0.3-0.1-0.5-0.2-0.8l0-0.1c-0.2-0.6-0.4-1.2-0.7-1.7c-0.1-0.3-0.3-0.6-0.4-0.8l0-0.1c-0.1-0.2-0.3-0.5-0.4-0.7h1.5l0,0
		c0.1,0.2,0.3,0.5,0.4,0.7L38.3,1c0.1,0.2,0.2,0.4,0.3,0.6l0.1,0.3c0.1,0.2,0.2,0.4,0.2,0.5C39,2.5,39,2.6,39,2.7
		c0.1,0.2,0.1,0.4,0.2,0.5c0,0.1,0.1,0.2,0.1,0.3c0,0.2,0.1,0.4,0.1,0.5c0,0,0.1,0.2,0.1,0.3c0,0.2,0.1,0.4,0.1,0.6c0,0,0,0.3,0,0.3
		c0,0.2,0,0.4,0.1,0.6l0,0.3c0,0.3,0,0.6,0,0.9c0,4.1-1.8,8-5.2,11l-0.2,0.1c-0.5,0.5-1.1,0.9-1.7,1.4c-3.8,2.6-8.6,4.1-13.6,4.1
		h-6.4v0.4h6.4c11.7,0,21.3-7.7,21.3-17.1c0-0.3,0-0.6,0-0.9l0-0.3c0-0.2,0-0.4-0.1-0.7L40.2,5c0-0.2-0.1-0.4-0.1-0.6L40,4.1
		c0-0.2-0.1-0.4-0.2-0.7l-0.1-0.2c-0.1-0.2-0.1-0.5-0.2-0.7l0-0.1c-0.1-0.3-0.2-0.5-0.3-0.7l0-0.1c-0.1-0.2-0.2-0.5-0.3-0.8l0-0.1
		c-0.1-0.2-0.2-0.5-0.4-0.7h1.5c0.9,1.7,1.4,3.4,1.7,5.2c0,0.3,0.1,0.6,0.1,0.8l0,0.1c0,0.3,0,0.6,0,0.9c0,0.3,0,0.7,0,1l0,0.3
		c0,0.2,0,0.5-0.1,0.7l0,0.3c0,0.2-0.1,0.5-0.1,0.7l0,0.2c0,0.2-0.1,0.5-0.2,0.7l-0.1,0.2c-0.1,0.2-0.2,0.5-0.2,0.8l0,0.1
		c-0.1,0.3-0.2,0.6-0.3,0.8l0,0.1c-0.1,0.3-0.2,0.6-0.4,0.8c-0.2,0.3-0.3,0.6-0.5,0.9l0,0.1h2.7V0h1.4v39.7H42.3z M28.2,23.8
		c-0.3,0.1-0.6,0.2-0.9,0.3L27,24.2h15.3v-0.4L28.2,23.8L28.2,23.8z M31.7,22.2c-0.1,0.1-0.3,0.1-0.4,0.2L31,22.6h11.3v-0.4
		L31.7,22.2L31.7,22.2z M34.2,20.6c-0.1,0.1-0.2,0.2-0.3,0.2L33.6,21h8.7v-0.4L34.2,20.6L34.2,20.6z M35.8,19.4l-0.1,0.1h6.6v-0.4
		h-6.2C36.1,19.1,35.9,19.3,35.8,19.4z M37.3,17.9h5v-0.4h-4.7L37.3,17.9z M38.6,16.4h3.7V16h-3.4L38.6,16.4z"/>
	<rect x="-0.1" y="0" class="st0" width="1.3" height="39.7"/>
	<rect x="9.4" y="0" class="st0" width="1.3" height="39.7"/>
	<rect x="7.5" y="0" class="st0" width="1.3" height="39.7"/>
	<rect x="5.6" y="0" class="st0" width="1.3" height="39.7"/>
	<rect x="46.1" y="0" class="st0" width="1.3" height="39.7"/>
	<rect x="48" y="0" class="st0" width="1.3" height="39.7"/>
	<rect x="50" y="0" class="st0" width="1.3" height="39.7"/>
	<rect x="51.9" y="0" class="st0" width="1.3" height="39.7"/>
	<polygon class="st0" points="193.3,39.7 193.3,3.2 192.7,4.7 192.7,39.7 191.4,39.7 191.4,8.2 190.8,9.7 190.8,39.7 189.5,39.7 
		189.5,13.3 188.9,14.8 188.9,39.7 187.6,39.7 187.6,18.3 187,19.8 187,39.7 185.6,39.7 185.6,23.4 179.5,39.7 178.1,39.7 193.1,0 
		194.6,0 194.6,39.7 	"/>
	<polygon class="st0" points="173.7,39.7 158.7,0 160.1,0 170.9,28.5 181.6,0 183,0 171.6,30.3 171.8,30.8 171.8,31 183.5,0 
		184.9,0 172.5,32.8 172.7,33.3 172.8,33.5 185.4,0 186.8,0 173.5,35.3 173.7,35.9 173.7,36 187.3,0 188.8,0 174.4,37.9 174.6,38.4 
		174.7,38.5 189.2,0 190.6,0 175.7,39.7 	"/>
	<polygon class="st0" points="176.2,39.7 191.1,0 192.6,0 177.6,39.7 	"/>
	<rect x="195.2" y="0" class="st0" width="1.3" height="39.7"/>
	<path class="st0" d="M84.3,39.7V25.3h-2.2l0,0.1c0.8,1.9,1.2,4,1.2,6v8.2H82v-8.2c0-4.2-1.9-8.2-5.3-11.4l0,0l-0.4,0.4l0.1,0
		c3.3,3,5.2,6.9,5.2,11v8.2h-1.3v-8.2c0-3.8-1.7-7.4-4.9-10.3l0,0l-0.4,0.3l0.1,0c3,2.7,4.7,6.3,4.7,9.9v8.3h-1.3v-8.2
		c0-3.4-1.6-6.8-4.5-9.3l0,0l-0.4,0.2l0.1,0c2.8,2.5,4.3,5.7,4.3,9v0v8.2h-1.3v-8.2v0c0-3.2-1.5-6.2-4.2-8.5l0,0l-0.5,0.2l0.1,0.1
		c2.6,2.2,4.1,5.1,4.1,8.2v0v8.2h-1.3v-8.2v0c0-2.9-1.5-5.7-4.1-7.7l0,0l-0.5,0.2l0.1,0.1c2.5,2,3.9,4.6,4,7.5v0v8.2h-1.3v-8.2
		l0-0.1c0-2.7-1.5-5.3-4.2-7.1l-0.2,0c-0.1,0-0.5,0.1-0.5,0.1l0.1,0.1c2.6,1.7,4.1,4.2,4.1,6.8l0,0v8.2h-1.3v-8.2l0-0.1
		c0-2.6-1.8-5.2-4.6-6.6c-1.7,0.3-3.3,0.4-5,0.4h-5.6v14.4h-1.3V0h1.3v14.8h5.6c5.3,0,9.6-3.4,9.6-7.7c0-0.2,0-0.4-0.1-0.7
		c0-0.1,0-0.2,0-0.2c0-0.2-0.1-0.3-0.1-0.5c0-0.1,0-0.2-0.1-0.2C70.1,5.3,70,5.1,70,5c0,0-0.1-0.2-0.1-0.2c-0.1-0.2-0.2-0.4-0.3-0.6
		c-0.1-0.1-0.1-0.1-0.1-0.2l0-0.1c-0.1-0.1-0.1-0.2-0.2-0.3c-0.1-0.1-0.1-0.2-0.2-0.3C69,3.2,68.9,3.1,68.9,3
		c-0.1-0.1-0.2-0.2-0.3-0.3c0,0-0.2-0.2-0.2-0.2C68.2,2.3,68,2,67.7,1.8l-0.1,0c-0.1-0.1-0.3-0.2-0.4-0.3l-0.1-0.1
		c-0.2-0.1-0.3-0.2-0.5-0.3c-0.7-0.4-1.4-0.8-2.2-1h2.8c1.3,0.8,2.4,1.8,3.2,3l0.1,0.1c0.2,0.2,0.3,0.5,0.4,0.7C71,4,71,4,71,4.1
		c0.1,0.3,0.2,0.5,0.3,0.7c0,0.1,0.1,0.2,0.1,0.3c0.1,0.2,0.1,0.4,0.2,0.7l0,0.1c0,0.1,0,0.1,0,0.2c0.1,0.4,0.1,0.7,0.1,1
		c0,4.9-4.9,8.8-10.9,8.8h-5.6v0.4h5.6c6.4,0,11.5-4.1,11.5-9.2c0-0.3,0-0.7-0.1-1c0-0.1,0-0.1,0-0.2l0-0.1
		c-0.1-0.2-0.1-0.5-0.2-0.7c0-0.1-0.1-0.2-0.1-0.3l0-0.1c-0.1-0.2-0.1-0.4-0.2-0.6c-0.1-0.1-0.1-0.2-0.2-0.3
		c-0.1-0.2-0.2-0.4-0.3-0.6C71.1,3.1,71.1,3,71,2.9c-0.1-0.2-0.3-0.4-0.4-0.6l-0.1-0.1c0-0.1-0.1-0.1-0.1-0.2
		c-0.2-0.2-0.4-0.4-0.6-0.6c0,0-0.1-0.1-0.1-0.1c-0.5-0.5-1-0.9-1.6-1.3h2c0.2,0.2,0.5,0.5,0.7,0.7c0.2,0.3,0.5,0.5,0.7,0.8
		c0.2,0.3,0.4,0.6,0.6,0.8l0.1,0.1c0.2,0.3,0.3,0.5,0.4,0.8c0,0,0.1,0.2,0.1,0.2c0.1,0.2,0.2,0.5,0.3,0.7c0,0.1,0,0.1,0.1,0.2
		l0.1,0.2c0.1,0.2,0.1,0.3,0.2,0.5c0,0.1,0.1,0.2,0.1,0.4l0.1,0.3c0,0.1,0,0.2,0.1,0.3c0,0.3,0.1,0.7,0.1,1
		c0,5.7-5.8,10.4-12.9,10.4h-5.6v0.4h5.6c7.4,0,13.5-4.9,13.5-10.8c0-0.3,0-0.7-0.1-1.1c0-0.1,0-0.2-0.1-0.3l0-0.2
		C74,5.4,74,5.2,73.9,5c0-0.2-0.1-0.3-0.1-0.5l-0.1-0.2c0-0.1-0.1-0.2-0.1-0.3c-0.1-0.2-0.2-0.4-0.3-0.6l0-0.1
		c0-0.1-0.1-0.1-0.1-0.2c-0.1-0.2-0.2-0.5-0.4-0.7l-0.1-0.2c-0.2-0.2-0.3-0.5-0.5-0.7l-0.1-0.1c-0.2-0.2-0.4-0.5-0.6-0.7l0-0.1
		c-0.2-0.2-0.4-0.4-0.6-0.6h1.8c0.8,0.9,1.5,2,2,3c0,0,0.1,0.2,0.1,0.3c0.1,0.2,0.1,0.4,0.2,0.6c0.1,0.2,0.1,0.3,0.2,0.5
		c0.1,0.2,0.1,0.3,0.1,0.5c0.1,0.2,0.1,0.4,0.1,0.7l0,0.1c0.1,0.1,0.1,0.2,0.1,0.3c0.1,0.4,0.1,0.8,0.1,1.1c0,6.6-6.7,12-14.8,12
		h-5.6v0.4h5.6c8.5,0,15.4-5.6,15.4-12.4c0-0.3,0-0.7-0.1-1.1c0-0.1,0-0.2,0-0.3l0-0.1C76,5.3,76,5.1,75.9,4.9
		c0-0.2-0.1-0.3-0.1-0.5c0-0.2-0.1-0.4-0.2-0.6l-0.1-0.1c0-0.1-0.1-0.2-0.1-0.4c0-0.1-0.1-0.2-0.1-0.2l-0.1-0.1
		c-0.2-0.4-0.4-0.8-0.7-1.2l-0.1-0.2C74.3,1.3,74.2,1,74,0.8l-0.1-0.2c-0.2-0.2-0.3-0.4-0.5-0.6H75c0.2,0.2,0.4,0.5,0.5,0.8
		c0.2,0.3,0.3,0.5,0.5,0.8l0.1,0.1c0.3,0.5,0.5,1.1,0.7,1.6l0.1,0.2C77,3.7,77,3.9,77.1,4.2l0,0.1c0.1,0.3,0.1,0.6,0.2,0.8l0,0.2
		c0,0.2,0.1,0.5,0.1,0.7l0,0.2c0,0.3,0,0.6,0,0.9c0,7.5-7.5,13.5-16.8,13.5h-5.6v0.4h5.6c9.6,0,17.4-6.2,17.4-13.9
		c0-0.3,0-0.6,0-0.9l0-0.2C78,5.8,78,5.5,78,5.3l0-0.2c-0.1-0.3-0.1-0.6-0.2-0.8l0-0.1c-0.1-0.2-0.1-0.5-0.2-0.7l-0.1-0.2
		c-0.1-0.2-0.2-0.5-0.3-0.7l-0.1-0.1c-0.1-0.3-0.2-0.5-0.4-0.8l0-0.1c-0.2-0.3-0.3-0.5-0.4-0.7l-0.1-0.2C76,0.4,75.8,0.2,75.7,0h1.6
		c0.1,0.2,0.3,0.5,0.4,0.7l0.1,0.1c0.2,0.3,0.3,0.5,0.4,0.7l0.1,0.2c0.1,0.2,0.2,0.5,0.3,0.7l0.1,0.1c0.1,0.3,0.2,0.6,0.3,0.8
		C79,3.7,79,3.9,79.1,4.2l0.1,0.2c0,0.2,0.1,0.4,0.1,0.6c0,0.1,0,0.2,0.1,0.3c0,0.2,0.1,0.4,0.1,0.6l0,0.3c0,0.3,0,0.6,0,0.9
		c0,8.3-8.4,15.1-18.7,15.1h-5.6v0.4h5.6c10.7,0,19.3-7,19.3-15.5c0-0.3,0-0.6,0-0.9l0-0.3c0-0.2,0-0.4-0.1-0.6c0-0.1,0-0.2,0-0.3
		c0-0.2-0.1-0.4-0.1-0.6l-0.1-0.2c-0.1-0.3-0.1-0.5-0.2-0.8l0-0.1c-0.2-0.6-0.4-1.2-0.7-1.7c-0.1-0.3-0.3-0.6-0.4-0.8l0-0.1
		c-0.1-0.2-0.3-0.5-0.4-0.7h1.5c0.2,0.3,0.3,0.5,0.4,0.8l0.1,0.1c0.1,0.2,0.2,0.4,0.3,0.7l0.1,0.2c0.1,0.2,0.2,0.4,0.2,0.6l0.1,0.2
		c0.1,0.2,0.1,0.4,0.2,0.6c0,0.1,0.1,0.2,0.1,0.3C81,3.7,81,3.9,81.1,4.1c0,0.1,0.1,0.2,0.1,0.3c0,0.2,0.1,0.4,0.1,0.6l0.1,0.3
		c0,0.2,0.1,0.4,0.1,0.6l0,0.3c0,0.3,0,0.6,0,0.9c0,9.2-9.3,16.7-20.7,16.7h-5.6v0.4h5.6C72.5,24.2,82,16.5,82,7.1
		c0-0.3,0-0.6,0-0.9l0-0.3c0-0.2,0-0.4-0.1-0.7c0-0.1-0.1-0.3-0.1-0.3c0-0.2-0.1-0.4-0.1-0.6l-0.1-0.2c-0.1-0.2-0.1-0.4-0.2-0.7
		l-0.1-0.2c-0.1-0.2-0.1-0.5-0.2-0.7l-0.1-0.2c-0.1-0.2-0.2-0.5-0.3-0.7l-0.1-0.1c-0.1-0.2-0.2-0.5-0.3-0.8l0-0.1
		c-0.1-0.2-0.2-0.5-0.4-0.7h1.5c0.1,0.3,0.3,0.5,0.4,0.8c0.1,0.3,0.2,0.6,0.4,0.8c0.1,0.3,0.2,0.6,0.3,0.9c0.1,0.3,0.2,0.6,0.2,0.8
		l0,0.1c0.1,0.2,0.1,0.5,0.2,0.8l0,0.1c0,0.2,0.1,0.5,0.1,0.7l0,0.2c0,0.2,0,0.4,0.1,0.6c0,0,0,0.3,0,0.3c0,0.3,0,0.6,0,0.9
		c0,2.7-0.7,5.2-2.1,7.7l-0.1,0.1h3.1V0h1.3v39.7H84.3z M81.5,24.2h2.8v-0.4h-3L81.5,24.2z M80.5,22.6l3.8,0v-0.4h-4L80.5,22.6z
		 M79.3,21l5,0v-0.4H79L79.3,21z M77.6,19.2l0.3,0.2l6.5,0v-0.4h-6.5L77.6,19.2z M78.9,17.9h5.4v-0.4h-5L78.9,17.9z M80.2,16.4h4.1
		V16h-3.8L80.2,16.4z"/>
	<rect x="86.2" y="0" class="st0" width="1.3" height="39.7"/>
	<rect x="88.1" y="0" class="st0" width="1.3" height="39.7"/>
	<rect x="90" y="0" class="st0" width="1.3" height="39.7"/>
	<rect x="91.9" y="0" class="st0" width="1.3" height="39.7"/>
	<rect x="93.8" y="0" class="st0" width="1.3" height="39.7"/>
	<path class="st0" d="M126.9,39.7c0.2-0.1,0.4-0.2,0.6-0.4l0.2-0.1c0.2-0.2,0.5-0.3,0.7-0.5l0.2-0.2c0.2-0.2,0.4-0.3,0.5-0.5
		l0.1-0.1c0.2-0.2,0.4-0.4,0.6-0.6l0.1-0.2c0.2-0.2,0.3-0.5,0.5-0.7l0-0.1c0.1-0.2,0.3-0.5,0.4-0.7l0.1-0.2c0.1-0.2,0.2-0.5,0.3-0.8
		l0.1-0.2c0.1-0.2,0.2-0.5,0.2-0.7l0-0.1c0.1-0.3,0.1-0.5,0.1-0.8l0-0.1c0-0.4,0.1-0.7,0.1-0.9c0-5.3-5.1-9.6-11.5-9.6h-0.1
		c-10.6-0.1-19.2-7.4-19.2-16.2c0-0.3,0-0.5,0-0.8c0-0.1,0-0.2,0-0.2l0-0.2c0-0.1,0-0.2,0-0.3c0-0.1,0-0.3,0.1-0.4l0.1-0.3
		c0-0.2,0.1-0.4,0.1-0.6l0-0.2c0.1-0.2,0.1-0.4,0.2-0.6l0-0.1c0.1-0.2,0.1-0.5,0.2-0.7c0.1-0.3,0.2-0.5,0.3-0.7
		c0.1-0.2,0.2-0.5,0.3-0.7h1.4c-0.2,0.4-0.4,0.9-0.6,1.3c-0.1,0.2-0.2,0.5-0.2,0.7c-0.1,0.3-0.2,0.5-0.2,0.7l0,0.1
		c-0.1,0.2-0.1,0.4-0.1,0.6l0,0.1c0,0.2-0.1,0.4-0.1,0.6l0,0.2c0,0.2,0,0.4-0.1,0.6l0,0.2c0,0.3,0,0.5,0,0.8c0,8.3,8.1,15,17.9,15.1
		l0.1,0c7,0.1,12.7,4.9,12.7,10.8c0,0.4,0,0.8-0.1,1.1c0,0,0,0.1,0,0.2l0,0.1c0,0.3-0.1,0.6-0.2,0.8c0,0,0,0.1,0,0.2l0,0.1
		c-0.1,0.3-0.2,0.5-0.3,0.8c0,0-0.1,0.2-0.1,0.2c-0.1,0.3-0.3,0.6-0.4,0.8l-0.1,0.1c-0.2,0.3-0.3,0.6-0.5,0.9l-0.1,0.1
		c-0.2,0.3-0.4,0.6-0.7,0.9c-0.5,0.6-1.1,1.1-1.7,1.6L126.9,39.7L126.9,39.7z"/>
	<path class="st0" d="M129.9,39.7c1.5-1.2,2.6-2.8,3.2-4.5l0-0.1c0.1-0.3,0.2-0.6,0.3-0.9c0,0,0-0.1,0.1-0.2
		c0.1-0.3,0.1-0.7,0.2-0.9l0-0.1c0,0,0-0.1,0-0.1c0.1-0.4,0.1-0.8,0.1-1.1c0-6.2-6-11.2-13.4-11.2h-0.1C110.8,20.5,103,13.9,103,6
		c0-0.3,0-0.5,0-0.8l0-0.2c0-0.2,0-0.4,0.1-0.6l0-0.2c0-0.2,0.1-0.4,0.1-0.6l0-0.2c0-0.2,0.1-0.4,0.1-0.6l0-0.1
		c0.1-0.3,0.1-0.5,0.2-0.7l0-0.1c0.1-0.2,0.2-0.4,0.2-0.7c0.1-0.3,0.2-0.5,0.3-0.7c0.1-0.2,0.2-0.5,0.3-0.7l1.5,0
		c-0.5,0.9-0.9,1.8-1.2,2.7l0,0.1c-0.1,0.2-0.1,0.4-0.2,0.6l-0.1,0.2c0,0.2-0.1,0.3-0.1,0.5l0,0.2c0,0.2,0,0.3-0.1,0.5l0,0.2
		c0,0.2,0,0.5,0,0.8c0,7.4,7.2,13.4,16,13.4l0.1,0c8.1,0.1,14.6,5.6,14.6,12.4c0,0.4,0,0.8-0.1,1.2c0,0.1,0,0.2,0,0.2l0,0.2
		c0,0.3-0.1,0.5-0.1,0.8c0,0.1-0.1,0.2-0.1,0.3l0,0.1c-0.1,0.2-0.1,0.5-0.2,0.7c-0.1,0.2-0.1,0.3-0.2,0.5c-0.1,0.2-0.2,0.4-0.3,0.6
		c-0.1,0.2-0.1,0.3-0.2,0.5c-0.1,0.2-0.2,0.4-0.3,0.6l-0.1,0.1c-0.1,0.1-0.1,0.2-0.2,0.4c-0.1,0.2-0.3,0.4-0.4,0.6l-0.1,0.1
		c-0.1,0.1-0.1,0.2-0.2,0.3c-0.2,0.2-0.4,0.4-0.6,0.6c-0.1,0.1-0.1,0.1-0.2,0.2l-0.1,0.1L129.9,39.7L129.9,39.7z"/>
	<path class="st0" d="M132.4,39.7c0.7-0.7,1.2-1.5,1.7-2.4l0.1-0.1c0-0.1,0.1-0.1,0.1-0.2c0.1-0.2,0.2-0.4,0.3-0.6
		c0.1-0.2,0.1-0.3,0.2-0.5c0.1-0.2,0.1-0.4,0.2-0.6c0.1-0.2,0.1-0.4,0.2-0.6c0.1-0.2,0.1-0.3,0.1-0.5c0.1-0.2,0.1-0.5,0.1-0.8l0-0.1
		c0-0.1,0-0.2,0-0.3c0.1-0.4,0.1-0.8,0.1-1.2c0-7.1-6.9-12.9-15.3-12.9l-0.1,0C111.8,18.8,105,13,105,6c0-0.3,0-0.7,0.1-1.2l0-0.3
		c0.1-0.4,0.1-0.7,0.2-1c0-0.1,0.1-0.2,0.1-0.3l0-0.1c0.1-0.2,0.2-0.5,0.2-0.8c0.1-0.2,0.1-0.4,0.2-0.6c0.1-0.2,0.2-0.4,0.2-0.6
		c0.1-0.2,0.2-0.4,0.3-0.5c0.1-0.2,0.3-0.5,0.4-0.7l1.5,0c-0.4,0.6-0.8,1.2-1,1.8c0,0-0.1,0.2-0.1,0.3c-0.1,0.2-0.1,0.4-0.2,0.5
		c-0.1,0.2-0.1,0.4-0.2,0.7c0,0.2-0.1,0.3-0.1,0.5c-0.1,0.3-0.1,0.5-0.1,0.8c0,0.1,0,0.2,0,0.3c0,0.4-0.1,0.8-0.1,1.1
		c0,6.5,6.3,11.8,14.1,11.8h0.1c9.1,0.1,16.6,6.4,16.6,14c0,0.3,0,0.7,0,1l0,0.2c0,0.3-0.1,0.6-0.1,1c-0.1,0.3-0.1,0.6-0.2,0.9
		l-0.1,0.2c-0.1,0.3-0.2,0.6-0.3,0.9c-0.1,0.3-0.2,0.6-0.4,0.9l-0.1,0.1c-0.3,0.6-0.6,1.2-1,1.7l-0.1,0.1c-0.2,0.3-0.4,0.5-0.6,0.8
		L132.4,39.7L132.4,39.7z"/>
	<path class="st0" d="M134.8,39.7c0.2-0.2,0.4-0.5,0.6-0.8c0.4-0.6,0.8-1.2,1.1-1.8l0.1-0.1c0.1-0.3,0.3-0.6,0.4-0.9
		s0.2-0.6,0.3-0.9l0.1-0.2c0.1-0.3,0.2-0.6,0.2-1c0.1-0.3,0.1-0.7,0.1-1l0-0.2c0-0.3,0-0.7,0-1c0-8-7.8-14.5-17.3-14.5l-0.1,0
		c-7.4-0.1-13.3-5.2-13.3-11.3c0-0.3,0-0.6,0.1-1c0-0.1,0-0.2,0-0.3c0-0.2,0.1-0.5,0.1-0.7l0-0.1c0-0.1,0-0.2,0.1-0.2
		c0.1-0.3,0.2-0.5,0.2-0.8c0.1-0.2,0.1-0.4,0.2-0.5c0-0.1,0.1-0.2,0.1-0.3c0.3-0.7,0.7-1.3,1.1-1.9l1.6,0c-0.2,0.2-0.3,0.4-0.4,0.6
		c-0.5,0.6-0.8,1.3-1.1,2c0,0-0.1,0.2-0.1,0.2c-0.1,0.1-0.1,0.3-0.1,0.4l0,0.1c-0.1,0.2-0.1,0.3-0.1,0.4c0,0.1-0.1,0.3-0.1,0.4
		c0,0.2-0.1,0.4-0.1,0.6l0,0.1c0,0.1,0,0.2,0,0.2c0,0.3-0.1,0.7-0.1,0.9c0,5.6,5.4,10.1,12.1,10.2h0.1c10.2,0.1,18.5,7.1,18.5,15.6
		c0,0.3,0,0.6,0,1l0,0.3c0,0.2-0.1,0.5-0.1,0.7l0,0.2c-0.1,0.6-0.3,1.3-0.5,1.9l-0.1,0.2c-0.1,0.3-0.2,0.6-0.3,0.8l0,0.1
		c-0.3,0.6-0.6,1.2-0.9,1.8c-0.2,0.3-0.4,0.6-0.6,0.9L134.8,39.7L134.8,39.7z"/>
	<polygon class="st0" points="162.3,39.7 156.1,23.4 156.1,39.7 154.8,39.7 154.8,19.8 154.2,18.3 154.2,39.7 152.8,39.7 
		152.8,14.8 152.3,13.3 152.3,39.7 150.9,39.7 150.9,9.7 150.4,8.2 150.4,39.7 149,39.7 149,4.7 148.5,3.2 148.5,39.7 147.1,39.7 
		147.1,0 148.7,0 163.7,39.7 	"/>
	<path class="st0" d="M121.9,39.7c4.5-0.7,8-3.9,8-7.9c0-4.4-4.3-8-9.5-8h-0.1c-3.9,0-7.8-1-11.1-2.7L109,21l0.1,0.2
		c1.1,1.7,1.6,3.5,1.6,5.4v5.3c0,4,3.4,7.2,7.9,7.9h-3.9c-0.6-0.3-1.2-0.6-1.7-1c-0.3-0.3-0.6-0.5-0.9-0.8l-0.1-0.1
		c-0.1-0.1-0.2-0.2-0.4-0.4c-0.1-0.1-0.1-0.1-0.2-0.2c-0.2-0.2-0.3-0.4-0.5-0.6c-0.1-0.1-0.2-0.2-0.2-0.3c-0.1-0.1-0.1-0.2-0.2-0.3
		c-0.1-0.2-0.2-0.3-0.3-0.5c-0.1-0.1-0.1-0.2-0.2-0.3c-0.1-0.2-0.2-0.4-0.2-0.6c0-0.1-0.1-0.2-0.1-0.2c-0.1-0.2-0.2-0.5-0.2-0.7
		l0-0.1c-0.1-0.2-0.1-0.5-0.1-0.8c0-0.1,0-0.1,0-0.2c0-0.3-0.1-0.6-0.1-0.8v-5.3c0-5.6-5.3-10.2-12.2-10.5h-0.1v0.4h0.1
		c6.5,0.3,11.6,4.8,11.6,10.1v5.3c0,0.3,0,0.6,0.1,0.9l0,0.2c0,0.3,0.1,0.6,0.2,0.8l0,0.1c0.1,0.3,0.2,0.5,0.2,0.8l0.1,0.2
		c0.1,0.3,0.2,0.5,0.3,0.8l0.1,0.2c0.1,0.2,0.3,0.5,0.4,0.7l0,0.1c0.2,0.2,0.3,0.5,0.5,0.7l0.1,0.2c0.2,0.2,0.4,0.4,0.6,0.6l0.1,0.1
		c0.2,0.2,0.3,0.3,0.5,0.5l0.2,0.2c0.2,0.2,0.4,0.3,0.7,0.5l0.2,0.1c0.2,0.2,0.4,0.3,0.6,0.4h-2.2c-0.6-0.5-1.2-1-1.7-1.6
		c-0.2-0.3-0.5-0.6-0.7-0.9l-0.1-0.1c-0.2-0.3-0.4-0.5-0.5-0.9l-0.1-0.1c-0.1-0.2-0.3-0.5-0.4-0.8c0,0-0.1-0.2-0.1-0.2
		c-0.1-0.3-0.2-0.5-0.3-0.8l0-0.1c0,0,0-0.1,0-0.2c-0.1-0.3-0.1-0.5-0.2-0.8l0-0.1c0,0,0-0.1,0-0.2c-0.1-0.4-0.1-0.8-0.1-1.1v-5.3
		c0-4.7-4.5-8.6-10.2-8.9h-0.1V18h0.1c5.4,0.3,9.7,4.1,9.7,8.5v5.3c0,0.4,0,0.8,0.1,1.2c0,0,0,0.1,0,0.1l0,0.1
		c0,0.3,0.1,0.6,0.2,0.9c0,0,0.1,0.2,0.1,0.2c0.1,0.4,0.2,0.7,0.3,0.9l0,0.1c0.6,1.7,1.8,3.2,3.2,4.5h-1.8l0-0.1
		c-0.1-0.1-0.1-0.1-0.2-0.2c-0.2-0.2-0.4-0.4-0.6-0.6c-0.1-0.1-0.1-0.2-0.2-0.3l-0.1-0.1c-0.1-0.2-0.3-0.4-0.4-0.6
		c-0.1-0.1-0.2-0.2-0.2-0.4l0-0.1c-0.1-0.2-0.2-0.4-0.3-0.6c-0.1-0.2-0.2-0.3-0.2-0.5c-0.1-0.2-0.2-0.4-0.3-0.6
		c-0.1-0.2-0.1-0.3-0.2-0.5c-0.1-0.2-0.1-0.4-0.2-0.7l0-0.1c0-0.1-0.1-0.2-0.1-0.3c-0.1-0.2-0.1-0.5-0.1-0.8l0-0.2
		c0-0.1,0-0.2,0-0.2c-0.1-0.4-0.1-0.8-0.1-1.2v-5.3c0-3.8-3.7-7.1-8.3-7.4h-0.1v0.4h0.1c4.3,0.3,7.7,3.3,7.7,6.9v5.3
		c0,0.4,0,0.8,0.1,1.2c0,0.1,0,0.2,0,0.3l0,0.1c0,0.2,0.1,0.5,0.1,0.8c0,0.2,0.1,0.3,0.1,0.5c0.1,0.2,0.1,0.4,0.2,0.6
		c0.1,0.2,0.1,0.4,0.2,0.6c0.1,0.2,0.1,0.3,0.2,0.5c0.1,0.2,0.2,0.4,0.3,0.6c0,0.1,0.1,0.1,0.1,0.2l0.1,0.1c0.5,0.8,1.1,1.7,1.7,2.4
		h-1.7c-0.2-0.2-0.4-0.5-0.6-0.8l0,0c-0.4-0.6-0.8-1.2-1-1.8l-0.1-0.1c-0.2-0.3-0.3-0.6-0.4-0.9c-0.1-0.3-0.2-0.6-0.3-0.9l-0.1-0.2
		c-0.1-0.3-0.2-0.6-0.2-0.9c-0.1-0.3-0.1-0.7-0.1-1l0-0.2c0-0.3,0-0.6,0-1v-5.3c0-3-2.7-5.5-6.4-5.8l-0.1,0v0.4l0.1,0
		c3.3,0.3,5.8,2.6,5.8,5.3v5.3c0,0.3,0,0.6,0,1l0,0.2c0,0.3,0.1,0.6,0.1,0.9c0.1,0.4,0.1,0.7,0.2,1l0.1,0.2c0.1,0.3,0.2,0.6,0.3,0.9
		c0.1,0.3,0.2,0.7,0.4,1l0,0.1c0.3,0.7,0.7,1.3,1,1.8c0.2,0.3,0.4,0.5,0.6,0.8H104c-0.2-0.3-0.3-0.5-0.5-0.8
		c-0.4-0.6-0.7-1.2-0.9-1.9l0-0.1c-0.1-0.3-0.2-0.5-0.3-0.8l-0.1-0.2c-0.2-0.6-0.4-1.3-0.5-1.9l0-0.2c0-0.2-0.1-0.5-0.1-0.7l0-0.3
		c0-0.3,0-0.6,0-1v-5.3c0-2.1-1.9-3.9-4.4-4.1l-0.1,0v0.4l0.1,0c2.2,0.3,3.8,1.9,3.8,3.7v5.3c0,0.3,0,0.7,0,1l0,0.3
		c0,0.2,0.1,0.5,0.1,0.7l0,0.3c0.1,0.3,0.1,0.6,0.2,0.9c0.1,0.3,0.2,0.7,0.3,1l0,0.1c0.1,0.3,0.2,0.6,0.3,0.9l0,0.1
		c0.4,0.9,0.9,1.8,1.4,2.7h-1.6c-0.1-0.3-0.3-0.6-0.5-0.9c-0.5-0.9-0.9-1.9-1.2-2.8l0-0.1c-0.1-0.3-0.2-0.5-0.2-0.8l-0.1-0.2
		c-0.1-0.2-0.1-0.5-0.1-0.7l-0.1-0.3c0-0.2-0.1-0.5-0.1-0.7l0-0.3c0-0.3,0-0.7,0-1v-5.3c0-1.2-1-2.2-2.5-2.5L97,24v0.5l0.1,0
		c1.1,0.3,1.9,1.1,1.9,2.1v5.3c0,0.3,0,0.7,0,1c0,0.1,0,0.3,0,0.3c0,0.2,0,0.5,0.1,0.7l0.1,0.3c0,0.2,0.1,0.5,0.1,0.7l0.1,0.3
		c0.1,0.3,0.1,0.5,0.2,0.8l0.1,0.2c0.4,1.3,0.9,2.5,1.6,3.7h-1.5l0-0.1c-0.2-0.3-0.3-0.5-0.4-0.8c-0.2-0.3-0.3-0.6-0.4-0.9l0-0.1
		c-0.1-0.3-0.2-0.5-0.3-0.8l-0.1-0.2c-0.1-0.2-0.2-0.5-0.2-0.8l-0.1-0.2c-0.1-0.2-0.1-0.5-0.2-0.7L98,34.9c-0.1-0.2-0.1-0.5-0.1-0.7
		l0-0.3c0-0.2-0.1-0.5-0.1-0.7c0,0,0-0.2,0-0.3c0-0.3,0-0.7,0-1v-5.3c0-0.3-0.2-0.6-0.5-0.8l-0.1-0.1v14h-1.3V0h1.3v14.8h0.1
		c1.9,0.1,3.8,0.5,5.6,1.2l0.2,0.1l-0.2-0.2c-2.4-3-3.7-6.4-3.7-10c0-0.4,0-0.9,0.1-1.4l0-0.2c0.1-0.4,0.1-0.9,0.2-1.3l0.1-0.2
		c0.2-1,0.5-1.9,0.9-2.8h1.4c-0.1,0.2-0.2,0.4-0.3,0.6c-0.1,0.3-0.2,0.5-0.3,0.7l0,0.1c-0.1,0.2-0.1,0.4-0.2,0.6L101,2.2
		c-0.1,0.2-0.1,0.4-0.2,0.6L100.8,3c0,0.2-0.1,0.3-0.1,0.5c0,0.1-0.1,0.4-0.1,0.4c0,0.1,0,0.3-0.1,0.4c0,0.1,0,0.3,0,0.4l0,0.2
		c0,0.1,0,0.2,0,0.2c0,0.3,0,0.6,0,0.8c0,9.2,8.9,16.7,19.9,16.7l0.1,0c5.9,0.1,10.8,4.2,10.8,9.1c0,0.2,0,0.5-0.1,0.8
		c0,0.1,0,0.1,0,0.2c0,0.3-0.1,0.5-0.1,0.8l0,0.1c-0.1,0.2-0.1,0.5-0.2,0.7c0,0.1-0.1,0.2-0.1,0.2c-0.1,0.2-0.2,0.4-0.2,0.6
		c-0.1,0.1-0.1,0.2-0.1,0.3c-0.1,0.2-0.2,0.3-0.3,0.5c-0.1,0.1-0.1,0.2-0.2,0.3s-0.2,0.2-0.2,0.3c-0.1,0.2-0.3,0.4-0.5,0.6
		c-0.1,0.1-0.1,0.2-0.2,0.2c-0.1,0.1-0.2,0.2-0.4,0.4l-0.1,0.1c-0.3,0.2-0.6,0.5-0.9,0.7c-0.6,0.4-1.1,0.8-1.7,1.1L121.9,39.7z"/>
	<rect x="145.2" y="0" class="st0" width="1.3" height="39.7"/>
	<path class="st0" d="M137.1,39.7c0.6-0.8,1.1-1.7,1.4-2.7l0-0.1c0.1-0.3,0.2-0.6,0.3-0.9l0-0.1c0.1-0.3,0.2-0.7,0.3-1
		c0.1-0.3,0.1-0.6,0.2-0.9l0-0.2c0-0.3,0.1-0.5,0.1-0.8l0-0.3c0-0.3,0-0.7,0-1c0-8.9-8.6-16.1-19.2-16.1l-0.1,0
		c-6.3-0.1-11.4-4.4-11.4-9.7c0-0.3,0-0.6,0.1-0.9c0-0.1,0-0.1,0-0.2l0-0.1c0-0.2,0.1-0.4,0.1-0.6c0-0.1,0.1-0.3,0.1-0.4
		c0-0.2,0.1-0.3,0.1-0.4c0.1-0.2,0.1-0.3,0.2-0.5c0-0.1,0.1-0.2,0.1-0.3c0.1-0.2,0.2-0.4,0.3-0.5l0.1-0.1c0.4-0.7,0.8-1.3,1.4-1.9
		l1.8,0c-0.2,0.2-0.4,0.3-0.5,0.5l-0.1,0.1c-0.2,0.2-0.4,0.4-0.5,0.6c-0.2,0.3-0.4,0.5-0.5,0.7l0,0.1c-0.2,0.2-0.3,0.5-0.4,0.7
		c0,0,0,0.1-0.1,0.1l0,0.1c-0.1,0.2-0.2,0.4-0.3,0.6c0,0.1,0,0.1-0.1,0.2l-0.1,0.2c0,0.1-0.1,0.3-0.1,0.4c0,0.1-0.1,0.3-0.1,0.4
		l-0.1,0.3c0,0.1,0,0.1,0,0.2c0,0.3-0.1,0.6-0.1,0.9c0,4.7,4.6,8.5,10.2,8.6h0.1c11.3,0.1,20.5,7.8,20.5,17.3c0,0.3,0,0.7,0,1l0,0.3
		c0,0.2-0.1,0.5-0.1,0.7l0,0.3c0,0.3-0.1,0.5-0.1,0.7l-0.1,0.2c-0.1,0.3-0.1,0.6-0.2,0.8l0,0.1c-0.3,1-0.7,1.9-1.2,2.8
		c-0.2,0.3-0.3,0.6-0.5,0.9C138.6,39.7,137.1,39.7,137.1,39.7z"/>
	<path class="st0" d="M139.3,39.7c0.7-1.2,1.2-2.4,1.6-3.7l0.1-0.2c0.1-0.2,0.1-0.5,0.2-0.8l0.1-0.3c0.1-0.2,0.1-0.5,0.1-0.7
		c0-0.1,0-0.2,0.1-0.3c0-0.2,0.1-0.5,0.1-0.7l0-0.3c0-0.3,0-0.7,0-1c0-9.8-9.5-17.7-21.2-17.8l-0.1,0c-5.2-0.1-9.5-3.7-9.5-8.1
		c0-0.3,0-0.6,0.1-0.8c0,0,0-0.1,0-0.1l0-0.1c0-0.2,0.1-0.4,0.1-0.6c0,0,0.1-0.2,0.1-0.2c0.1-0.2,0.1-0.4,0.2-0.6l0.1-0.2
		c0.1-0.2,0.2-0.4,0.3-0.6l0.1-0.1c0.1-0.2,0.2-0.4,0.4-0.6l0.1-0.1c0.2-0.2,0.3-0.4,0.5-0.6c0.2-0.2,0.4-0.4,0.6-0.6
		c0.2-0.2,0.4-0.4,0.7-0.6l2.2,0c-0.2,0.1-0.4,0.2-0.6,0.3l-0.1,0.1c-0.3,0.2-0.5,0.4-0.8,0.5c-0.3,0.2-0.5,0.4-0.7,0.7l-0.1,0
		c-0.2,0.2-0.4,0.4-0.5,0.6l-0.1,0.2c-0.2,0.2-0.3,0.5-0.4,0.7c-0.2,0.3-0.3,0.5-0.4,0.8c0,0-0.1,0.2-0.1,0.2
		c-0.1,0.2-0.1,0.4-0.2,0.6c0,0.1,0,0.2,0,0.2c-0.1,0.3-0.1,0.6-0.1,0.9c0,3.8,3.7,6.9,8.2,6.9h0.1c12.3,0.1,22.4,8.6,22.4,18.9
		c0,0.3,0,0.7,0,1c0,0,0,0.3,0,0.3c0,0.2,0,0.5-0.1,0.7l0,0.3c0,0.2-0.1,0.5-0.1,0.7l-0.1,0.3c-0.1,0.2-0.1,0.5-0.2,0.7l-0.1,0.2
		c-0.1,0.3-0.1,0.5-0.2,0.8l0,0.1c-0.1,0.3-0.2,0.6-0.3,0.9l0,0.1c-0.1,0.3-0.2,0.6-0.4,0.9c-0.2,0.3-0.3,0.6-0.4,0.9l0,0.1
		L139.3,39.7L139.3,39.7z"/>
	<path class="st0" d="M143.3,39.7V18.9h-0.4c-7.8,0-14.2-5.8-14.2-12.9c0-0.3,0-0.5-0.1-0.9c0-0.1,0-0.2,0-0.2
		c0-0.2-0.1-0.4-0.2-0.6c0,0-0.1-0.2-0.1-0.2c-0.1-0.3-0.2-0.5-0.3-0.8c-0.2-0.3-0.3-0.5-0.5-0.7l-0.1-0.2c-0.2-0.2-0.3-0.4-0.5-0.6
		l-0.1-0.1c-0.2-0.2-0.5-0.4-0.7-0.6c-0.2-0.2-0.5-0.4-0.8-0.6l-0.1-0.1c-0.2-0.1-0.4-0.2-0.6-0.3h2.3c0.2,0.2,0.4,0.4,0.6,0.6
		c0.2,0.2,0.4,0.4,0.6,0.6c0.2,0.2,0.4,0.4,0.5,0.7l0.1,0.1c0.1,0.2,0.3,0.4,0.4,0.6l0.1,0.1c0.1,0.2,0.2,0.4,0.3,0.6l0.1,0.2
		c0.1,0.2,0.1,0.4,0.2,0.6c0,0,0.1,0.2,0.1,0.2c0.1,0.2,0.1,0.4,0.1,0.6l0,0.1c0,0,0,0.1,0,0.1c0,0.3,0.1,0.6,0.1,0.8
		c0,6.5,5.8,11.8,12.8,11.8h0.4v-0.6h-0.4c-6.8,0-12.2-5-12.2-11.2c0-0.3,0-0.6-0.1-0.9c0-0.1,0-0.1,0-0.2l-0.1-0.2
		c0-0.1,0-0.3-0.1-0.4c0-0.1-0.1-0.3-0.1-0.4l-0.1-0.2c0-0.1,0-0.1-0.1-0.2c-0.1-0.2-0.2-0.4-0.3-0.6c0,0-0.1-0.1-0.1-0.2
		c-0.1-0.2-0.2-0.4-0.4-0.7l-0.1-0.1c-0.1-0.2-0.3-0.4-0.5-0.6l0-0.1c-0.2-0.2-0.4-0.4-0.5-0.6l-0.1-0.1c-0.2-0.2-0.4-0.3-0.5-0.5
		h1.8c0.5,0.6,1,1.2,1.4,1.9l0.1,0.1c0.1,0.2,0.2,0.3,0.2,0.5c0.1,0.1,0.1,0.2,0.1,0.3c0.1,0.2,0.1,0.3,0.2,0.5
		c0.1,0.1,0.1,0.3,0.1,0.4c0,0.1,0.1,0.3,0.1,0.4c0,0.2,0.1,0.4,0.1,0.6l0,0.1c0,0.1,0,0.1,0,0.2c0,0.3,0.1,0.6,0.1,0.9
		c0,5.5,4.9,10,10.9,10h0.4v-0.6h-0.4c-5.7,0-10.3-4.2-10.3-9.4c0-0.3,0-0.6-0.1-0.9c0-0.1,0-0.2,0-0.2l0-0.1c0-0.2-0.1-0.4-0.1-0.6
		c0-0.1-0.1-0.3-0.1-0.4c0-0.2-0.1-0.3-0.1-0.4c-0.1-0.2-0.1-0.3-0.2-0.5c0,0-0.1-0.2-0.1-0.2c-0.3-0.7-0.7-1.3-1.1-1.9
		c-0.1-0.2-0.3-0.4-0.5-0.6h1.6c0.4,0.6,0.8,1.2,1.1,1.9c0,0.1,0.1,0.2,0.1,0.3c0.1,0.2,0.1,0.4,0.2,0.5c0.1,0.3,0.2,0.5,0.2,0.8
		c0,0.1,0,0.1,0.1,0.2l0,0.1c0.1,0.2,0.1,0.5,0.1,0.7c0,0.1,0,0.2,0,0.3c0,0.4,0.1,0.7,0.1,1c0,4.5,4,8.2,8.9,8.2h0.4v-0.6h-0.4
		c-4.6,0-8.4-3.4-8.4-7.6c0-0.3,0-0.7-0.1-1.1c0-0.1,0-0.2,0-0.3c0-0.3-0.1-0.5-0.1-0.8c0-0.2-0.1-0.3-0.1-0.5
		c-0.1-0.2-0.1-0.4-0.2-0.7c-0.1-0.2-0.1-0.4-0.2-0.5c0-0.1-0.1-0.3-0.1-0.3c-0.3-0.6-0.6-1.3-1-1.8h1.6c0.1,0.2,0.2,0.4,0.4,0.7
		c0.1,0.2,0.2,0.3,0.3,0.5c0.1,0.2,0.2,0.4,0.2,0.6s0.1,0.4,0.2,0.6c0.1,0.2,0.2,0.5,0.2,0.8l0,0.1c0,0.1,0.1,0.2,0.1,0.3
		c0.1,0.3,0.1,0.7,0.2,1.1l0,0.3c0.1,0.4,0.1,0.8,0.1,1.2c0,3.6,3.1,6.5,7,6.5h0.4v-0.6h-0.4c-3.5,0-6.4-2.6-6.4-5.8
		c0-0.3,0-0.5,0-0.8l0-0.2c0-0.2,0-0.3-0.1-0.5l0-0.2c0-0.2-0.1-0.4-0.1-0.6l-0.1-0.2c0-0.2-0.1-0.4-0.1-0.6l0-0.2
		c-0.3-1-0.7-1.9-1.2-2.7h1.5c0.1,0.2,0.2,0.4,0.3,0.6c0.1,0.2,0.2,0.5,0.3,0.7c0.1,0.3,0.2,0.5,0.2,0.7l0,0.1
		c0.1,0.2,0.1,0.4,0.2,0.6l0,0.1c0.1,0.2,0.1,0.4,0.1,0.6l0,0.2c0,0.2,0.1,0.4,0.1,0.6l0,0.2c0,0.2,0,0.4,0.1,0.6l0,0.2
		c0,0.2,0,0.5,0,0.8c0,2.6,2.3,4.7,5.1,4.7h0.4V10h-0.4c-2.4,0-4.4-1.8-4.4-4.1c0-0.3,0-0.5,0-0.8l0-0.1c0-0.2,0-0.4-0.1-0.6l0-0.2
		c0-0.2-0.1-0.4-0.1-0.6l0-0.1c-0.1-0.3-0.1-0.5-0.2-0.7l0-0.1c-0.1-0.2-0.1-0.5-0.2-0.7c-0.1-0.3-0.2-0.5-0.3-0.7
		c-0.2-0.4-0.4-0.9-0.6-1.3h1.5c0.1,0.2,0.2,0.4,0.3,0.7c0.1,0.2,0.2,0.5,0.3,0.7c0.1,0.3,0.2,0.5,0.2,0.7l0,0.1
		c0.1,0.2,0.1,0.4,0.2,0.6l0,0.2c0,0.2,0.1,0.4,0.1,0.6l0.1,0.3c0,0.1,0,0.3,0.1,0.4c0,0.1,0,0.2,0,0.3l0,0.2c0,0.1,0,0.2,0,0.2
		c0,0.3,0,0.5,0,0.8c0,1.6,1.4,2.9,3.1,2.9h0.4V8.2h-0.4c-1.4,0-2.5-1-2.5-2.3c0-0.3,0-0.6,0-0.8c0-0.1,0-0.3,0-0.3l0-0.1
		c0-0.1,0-0.3,0-0.4c0-0.1,0-0.3-0.1-0.4c0,0-0.1-0.3-0.1-0.4c0-0.2-0.1-0.3-0.1-0.5L140,2.8c0-0.2-0.1-0.4-0.1-0.6L139.8,2
		c-0.1-0.2-0.1-0.4-0.2-0.6l0-0.1c-0.1-0.2-0.2-0.4-0.2-0.6c-0.1-0.2-0.2-0.4-0.3-0.6h1.4c0.4,0.9,0.7,1.8,0.9,2.8l0,0.2
		c0.1,0.5,0.2,0.9,0.2,1.4l0,0.2c0.1,0.5,0.1,1,0.1,1.4c0,0.6,0.5,1.1,1.2,1.1h0.4V0h1.3v39.7H143.3z"/>
	<polygon class="st0" points="164.2,39.7 149.2,0 150.6,0 165.6,39.7 	"/>
	<polygon class="st0" points="166.1,39.7 151.1,0 152.5,0 167.5,39.7 	"/>
	<polygon class="st0" points="168,39.7 153,0 154.4,0 169.4,39.7 	"/>
	<polygon class="st0" points="169.9,39.7 154.9,0 156.3,0 171.3,39.7 	"/>
	<polygon class="st0" points="171.8,39.7 156.8,0 158.2,0 173.2,39.7 	"/>
</g>
</svg>
